<svg width="28" height="28" viewBox="0 0 28 28" fill="none" xmlns="http://www.w3.org/2000/svg">
<path d="M9.33333 8.16659L10.1967 6.87159C10.4098 6.55211 10.6985 6.29019 11.0372 6.10906C11.3758 5.92793 11.754 5.83319 12.138 5.83325H15.862C16.246 5.83319 16.6242 5.92793 16.9628 6.10906C17.3015 6.29019 17.5902 6.55211 17.8033 6.87159L18.6667 8.16659H24.5V20.9999H3.5V8.16659H9.33333Z" stroke="#C9C3DC" stroke-width="2" stroke-linecap="round" stroke-linejoin="round"/>
<path d="M14 17.5C15.933 17.5 17.5 15.933 17.5 14C17.5 12.067 15.933 10.5 14 10.5C12.067 10.5 10.5 12.067 10.5 14C10.5 15.933 12.067 17.5 14 17.5Z" stroke="#C9C3DC" stroke-width="2" stroke-linecap="round" stroke-linejoin="round"/>
</svg>
